<?xml version="1.0" encoding="UTF-8"?>
<svg version="1.1" xmlns="http://www.w3.org/2000/svg" width="1254" height="1254">
<path d="M0 0 C413.82 0 827.64 0 1254 0 C1254 413.82 1254 827.64 1254 1254 C840.18 1254 426.36 1254 0 1254 C0 840.18 0 426.36 0 0 Z " fill="#FDFDFD" transform="translate(0,0)"/>
<path d="M0 0 C0.71406006 0.00054382 1.42812012 0.00108765 2.16381836 0.00164795 C21.023384 0.06724188 38.51107457 3.08118103 55.9375 10.375 C56.64213379 10.66890625 57.34676758 10.9628125 58.07275391 11.265625 C95.0795171 27.01957515 125.07052944 58.2512517 140.40161133 95.34301758 C151.35940158 122.78785307 152.54623497 149.2127532 152.44187045 178.39566588 C152.42781373 183.31629443 152.43450284 188.23690551 152.43800354 193.157547 C152.44068887 201.4103491 152.4273732 209.66300436 152.40405273 217.91577148 C152.37742719 227.40271664 152.37571073 236.88941706 152.3874411 246.37638682 C152.39828714 255.57771578 152.39198032 264.77895781 152.37788582 273.98027992 C152.37218752 277.86291925 152.37215931 281.74549367 152.37695122 285.62813377 C152.38178751 290.2126378 152.37134994 294.79687993 152.34999657 299.3813343 C152.34451871 301.04516594 152.34387822 302.70902322 152.34894943 304.37285614 C152.39476871 321.58774803 150.13577516 338.17095462 145 354.625 C144.66548828 355.75550781 144.33097656 356.88601563 143.98632812 358.05078125 C142.33593523 363.48849193 140.55258046 368.5941259 137.8684082 373.60693359 C136.96460962 375.32351092 136.20184902 377.11206069 135.4453125 378.8984375 C120.8259509 412.60629197 94.00199197 439.22891339 63.9375 459.375 C63.29232422 459.8095752 62.64714844 460.24415039 61.98242188 460.69189453 C60.20786953 461.87570043 58.42117254 463.03683101 56.625 464.1875 C55.61824219 464.83332031 54.61148437 465.47914063 53.57421875 466.14453125 C50.56632443 467.54821527 49.95316109 467.4517361 46.9375 466.375 C44.68253856 464.63728487 42.5620561 462.88477145 40.4375 461 C39.51372559 460.19405396 39.51372559 460.19405396 38.57128906 459.37182617 C33.56046688 454.97995002 28.63652645 450.49389498 23.74609375 445.96875 C21.09728752 443.52256455 18.43016831 441.09923851 15.75 438.6875 C14.95464844 437.96949219 14.15929687 437.25148438 13.33984375 436.51171875 C11.6819459 435.03713318 10.00618136 433.58247699 8.31640625 432.14453125 C7.49011719 431.43683594 6.66382813 430.72914063 5.8125 430 C5.06742188 429.37351562 4.32234375 428.74703125 3.5546875 428.1015625 C1.9375 426.375 1.9375 426.375 1.9375 423.375 C3.69900391 422.50101563 3.69900391 422.50101563 5.49609375 421.609375 C22.48442816 413.02456069 37.49432758 402.89404218 50.9375 389.375 C51.74574219 388.56675781 52.55398438 387.75851562 53.38671875 386.92578125 C76.12623452 362.91634488 86.46886671 330.37744063 86.32568359 297.77368164 C86.32976253 296.18315778 86.33511173 294.59263677 86.34161377 293.00212097 C86.3551374 288.73339563 86.3500512 284.46489101 86.34047651 280.19616246 C86.33280006 275.69582799 86.33994754 271.19551051 86.34463501 266.69517517 C86.35007014 259.14123191 86.34296081 251.58737706 86.32861328 244.03344727 C86.31229705 235.34354594 86.31757692 226.65385596 86.3340925 217.96395975 C86.3477788 210.45768288 86.34959219 202.95146903 86.34177649 195.44518369 C86.33713821 190.98192003 86.33636745 186.51875514 86.34638596 182.05549812 C86.35515805 177.85522434 86.34885045 173.65521855 86.33170319 169.45497322 C86.32779201 167.92856284 86.32877799 166.40212924 86.33549118 164.87572861 C86.43549497 139.79288822 80.35679547 115.93100051 63.9375 96.375 C63.5146875 95.79621094 63.091875 95.21742188 62.65625 94.62109375 C51.32410741 79.73038199 30.83105844 71.0268212 12.9375 68.375 C-12.12009639 66.79884545 -34.68809642 70.38455624 -54.0625 87.375 C-54.784375 87.94347656 -55.50625 88.51195312 -56.25 89.09765625 C-68.84725352 99.39853543 -76.367654 113.71728748 -81.3125 128.9375 C-81.5712793 129.72922607 -81.83005859 130.52095215 -82.09667969 131.33666992 C-82.33805664 132.11373291 -82.57943359 132.8907959 -82.828125 133.69140625 C-83.04243164 134.37662354 -83.25673828 135.06184082 -83.47753906 135.76782227 C-85.56940382 145.09128793 -85.21755763 154.66360008 -85.22363281 164.15966797 C-85.22826837 165.85428473 -85.23329401 167.54890046 -85.23867798 169.24351501 C-85.25173703 173.82882194 -85.25823474 178.41411426 -85.26268864 182.99943686 C-85.26563122 185.87326467 -85.2697383 188.74708861 -85.27419281 191.62091446 C-85.28785359 200.63856736 -85.29752594 209.65621126 -85.3013947 218.67387378 C-85.30586546 229.03402388 -85.32337361 239.3940414 -85.3523953 249.75415123 C-85.37412306 257.79363163 -85.38410494 265.83307505 -85.38543582 273.87258446 C-85.38647638 278.65908495 -85.39222192 283.44546058 -85.41025543 288.23192978 C-85.42692819 292.74479914 -85.42880023 297.25745238 -85.42011642 301.77034187 C-85.41935607 303.41040826 -85.42355324 305.05048721 -85.43357468 306.69052315 C-85.5233069 322.3143705 -83.65975729 337.58549773 -79.0625 352.5625 C-78.815 353.41134766 -78.5675 354.26019531 -78.3125 355.13476562 C-75.95476329 363.09826694 -73.11563126 370.64603437 -69.375 378.0625 C-69.02687256 378.75311523 -68.67874512 379.44373047 -68.32006836 380.15527344 C-56.73131634 402.80637138 -40.30338021 421.50642664 -22.35205078 439.29125977 C-20.29521993 441.32962493 -18.24671383 443.37608947 -16.19921875 445.42382812 C-14.86766094 446.75047536 -13.53564601 448.07666398 -12.203125 449.40234375 C-11.30439667 450.29940285 -11.30439667 450.29940285 -10.38751221 451.21458435 C-6.66417567 454.8970572 -2.82202573 458.39778393 1.1436615 461.81803894 C3.73687918 464.06882068 6.23736476 466.40955935 8.75 468.75 C13.42256829 473.07221845 18.25368623 477.13075267 23.21484375 481.12109375 C26.08390586 483.49619968 28.82451803 485.97526837 31.5625 488.5 C35.41315845 492.04064781 39.345379 495.31790806 43.5078125 498.48046875 C48.20758971 502.14508603 52.70568546 506.05981069 57.23925781 509.92675781 C60.00961737 512.28928985 62.78500231 514.64586606 65.5625 517 C66.10503418 517.46003418 66.64756836 517.92006836 67.20654297 518.39404297 C70.54495562 521.21777111 73.91574305 523.99641596 77.3125 526.75 C87.61150538 535.14511355 97.55186542 543.94473316 107.30859375 552.9609375 C109.49236315 554.96624135 111.69713925 556.9336607 113.9375 558.875 C121.25137272 565.22692286 128.42849548 571.75001293 135.20410156 578.67504883 C136.87044273 580.30923666 138.59413832 581.8056949 140.37890625 583.30859375 C143.98777204 586.44641454 147.37951593 589.76719057 150.73046875 593.17578125 C151.50624771 593.96337326 151.50624771 593.96337326 152.29769897 594.76687622 C154.4421073 596.94747536 156.58381552 599.13052786 158.71508789 601.32397461 C174.65747941 617.70381729 191.38608918 631.06735899 215.20776367 631.71826172 C230.04852821 631.89485663 242.67352464 629.24244687 254.9375 620.375 C255.56914063 619.92511719 256.20078125 619.47523438 256.8515625 619.01171875 C265.56954538 612.19479381 270.22179926 602.56186496 273.9375 592.375 C274.48664063 591.03501953 274.48664063 591.03501953 275.046875 589.66796875 C278.96193578 575.19254667 276.11853893 559.38996111 269.36328125 546.33203125 C260.79510311 531.85200991 249.32637675 524.41789224 233.89819336 518.97998047 C222.32230585 514.83063005 214.2138728 508.76778382 208.77319336 497.58251953 C207.37852542 493.89844489 207.29803541 490.40427997 207.375 486.5 C207.38595703 485.71061035 207.39691406 484.9212207 207.40820312 484.10791016 C207.73415669 475.30535296 210.71594569 469.5707014 216.5625 463.0625 C222.57344198 457.51307229 229.32297455 454.16239766 237.5625 453.8125 C251.31530943 454.48857601 263.92135559 458.88209918 275.9375 465.375 C276.56398438 465.71160645 277.19046875 466.04821289 277.8359375 466.39501953 C287.4944986 471.67519719 295.8459854 477.93636522 303.9375 485.375 C304.88367188 486.22707031 305.82984375 487.07914063 306.8046875 487.95703125 C327.99623153 507.97793758 342.21229631 537.79988842 343.16603088 566.95933533 C343.91065967 595.78261166 343.91065967 595.78261166 339.9375 609.375 C339.44443359 611.08623047 339.44443359 611.08623047 338.94140625 612.83203125 C328.60482093 644.70018875 305.89419776 669.74739267 276.52709961 685.19921875 C244.39758232 701.43853565 208.13015878 702.34311809 174.1965332 691.40917969 C148.87016562 682.71925982 128.32545187 666.11030949 109.78100586 647.25073242 C106.20676801 643.61745832 102.55111336 640.17506737 98.66015625 636.87890625 C96.83319493 635.28394002 95.13690713 633.60482158 93.4375 631.875 C90.47014677 628.86086418 87.36404708 626.07582667 84.16015625 623.31640625 C81.60773117 621.08695939 79.11862486 618.79498618 76.625 616.5 C71.74670457 612.05547913 66.71936086 607.85357769 61.58349609 603.71191406 C58.98019591 601.59745666 56.40120508 599.45375865 53.81811523 597.31469727 C46.18521324 590.99883836 38.47392488 584.80064655 30.65673828 578.71484375 C27.66092296 576.38013281 24.67428763 574.03374179 21.6875 571.6875 C21.1001709 571.22649902 20.5128418 570.76549805 19.90771484 570.29052734 C16.54769879 567.65044707 13.20444995 564.99112048 9.875 562.3125 C6.70922151 559.76746239 3.50839203 557.27713096 0.27514648 554.81835938 C-5.96763071 550.06723556 -11.99534664 545.11844737 -17.953125 540.015625 C-20.73464811 537.63781619 -23.5782635 535.34650549 -26.4375 533.0625 C-32.42118606 528.20020752 -37.98344781 522.91441715 -43.59375 517.6328125 C-46.2854616 515.09918095 -48.99092117 512.58552179 -51.75 510.125 C-52.31074219 509.62484375 -52.87148438 509.1246875 -53.44921875 508.609375 C-56.47447291 506.29465269 -58.20019567 505.31861777 -62.12426758 505.57519531 C-63.30657959 505.78241211 -64.4888916 505.98962891 -65.70703125 506.203125 C-66.677295 506.36672516 -66.677295 506.36672516 -67.66716003 506.53363037 C-69.73874316 506.88528402 -71.80673094 507.25439788 -73.875 507.625 C-76.56822713 508.09313396 -79.26263119 508.55429779 -81.95703125 509.015625 C-82.9629985 509.19019226 -82.9629985 509.19019226 -83.98928833 509.36828613 C-88.63213314 510.1643179 -93.2768024 510.82231975 -97.94921875 511.421875 C-102.90176402 512.05855661 -107.75601992 512.85480527 -112.63916016 513.88818359 C-116.29540879 514.62267481 -119.97750243 515.16018029 -123.6640625 515.71875 C-133.34929877 517.18992513 -142.97766561 518.84642619 -152.5625 520.875 C-153.94828247 521.15887573 -153.94828247 521.15887573 -155.36206055 521.44848633 C-160.60452966 522.5930737 -165.27941142 524.17534183 -170.1328125 526.46484375 C-172.31537624 527.49427159 -174.54136906 528.31269769 -176.8125 529.125 C-187.79370542 533.50045704 -197.26345715 540.59974515 -206.0625 548.375 C-207.10664063 549.27605469 -207.10664063 549.27605469 -208.171875 550.1953125 C-222.3849744 563.32821635 -232.47929469 583.51566356 -233.37109375 602.83203125 C-233.87558242 621.06548803 -231.3973637 635.60948748 -220.0625 650.375 C-219.49917969 650.92414062 -218.93585938 651.47328125 -218.35546875 652.0390625 C-217.0625 653.375 -217.0625 653.375 -217.0625 655.375 C-216.19625 655.76945313 -216.19625 655.76945313 -215.3125 656.171875 C-212.94404056 657.4383429 -211.1159706 658.8982179 -209.0625 660.625 C-201.05133663 666.93921743 -191.95121652 671.0086035 -182.0625 673.375 C-180.85787109 673.68244141 -180.85787109 673.68244141 -179.62890625 673.99609375 C-156.04205524 679.20171536 -131.36497391 673.10018361 -110.6640625 661.46484375 C-74.69032826 638.47375638 -55.81211386 597.96066607 -41.0625 559.375 C-36.1093857 559.375 -35.33046254 560.47869875 -31.6875 563.6875 C-30.61092221 564.61767915 -29.53273541 565.54599863 -28.453125 566.47265625 C-27.61491211 567.19606201 -27.61491211 567.19606201 -26.75976562 567.93408203 C-24.04421279 570.23948952 -21.24598182 572.43446512 -18.4375 574.625 C-17.87063477 575.0681958 -17.30376953 575.5113916 -16.71972656 575.96801758 C-14.8355186 577.43899034 -12.94907019 578.90705827 -11.0625 580.375 C-9.47913254 581.60933122 -7.89580096 582.84370847 -6.3125 584.078125 C-3.17541566 586.52203808 -0.03800287 588.96552476 3.1015625 591.40625 C3.74561035 591.90705078 4.3896582 592.40785156 5.05322266 592.92382812 C7.00208654 594.42474117 8.96656694 595.90322419 10.9375 597.375 C8.92851583 604.87459228 6.15662836 611.78502973 2.875 618.8125 C2.39039307 619.85656006 1.90578613 620.90062012 1.40649414 621.97631836 C-10.51192923 647.42491608 -24.64514826 670.00223587 -44.0625 690.375 C-44.83980469 691.21675781 -45.61710938 692.05851563 -46.41796875 692.92578125 C-57.56755212 704.63564519 -71.05571548 713.46794422 -85.0625 721.375 C-85.64161133 721.70902832 -86.22072266 722.04305664 -86.81738281 722.38720703 C-93.0017456 725.94944209 -98.90665459 728.94724122 -105.8203125 730.76953125 C-108.33867288 731.40637219 -108.33867288 731.40637219 -111.75 732.8125 C-127.25028516 738.73816234 -143.28328055 740.74077926 -159.76611328 740.69067383 C-161.92922416 740.6875121 -164.09096255 740.71109786 -166.25390625 740.73632812 C-201.64691889 740.89526715 -236.11180385 726.31749194 -261.25 701.5625 C-271.15086988 691.4922052 -278.52016851 680.4788812 -285.14428711 668.04418945 C-285.91349421 666.64587279 -286.76079191 665.29090181 -287.625 663.94921875 C-289.63384055 660.35186569 -290.85232451 656.59631606 -292.125 652.6875 C-292.38958008 651.88602539 -292.65416016 651.08455078 -292.92675781 650.25878906 C-294.50218941 645.39052797 -295.85259714 640.5815184 -296.640625 635.515625 C-297.0290026 633.24296256 -297.0290026 633.24296256 -298.07006836 630.66430664 C-299.84767781 624.77261361 -299.40688192 618.67075375 -299.375 612.5625 C-299.37350952 611.86658752 -299.37201904 611.17067505 -299.3704834 610.45367432 C-299.21990372 571.47263997 -282.09450311 536.00682567 -255.0625 508.375 C-254.25296875 507.51519531 -253.4434375 506.65539062 -252.609375 505.76953125 C-233.18122322 485.55798625 -206.83194187 471.20215202 -180.0625 463.375 C-178.8765625 463.01792969 -177.690625 462.66085937 -176.46875 462.29296875 C-162.85395057 458.40925994 -149.05612515 456.3427791 -134.92553711 455.71801758 C-130.06058434 455.48936998 -125.46037215 454.83196821 -120.69921875 453.84765625 C-116.68764408 453.12854435 -112.65724501 452.88308224 -108.59375 452.62109375 C-105.94003988 452.45803746 -105.94003988 452.45803746 -103.0625 451.375 C-103.40394043 450.88845947 -103.74538086 450.40191895 -104.09716797 449.90063477 C-116.80539362 431.72808496 -128.16498479 413.48551129 -136.140625 392.71875 C-136.88711353 390.82089779 -137.69433898 388.94701003 -138.51953125 387.08203125 C-152.07421833 355.57813813 -152.53404882 320.58285441 -152.46547651 286.95047593 C-152.45776936 281.97378978 -152.46495533 276.99711849 -152.46963501 272.02043152 C-152.47505939 263.67350231 -152.46798736 255.3266533 -152.45361328 246.97973633 C-152.43727712 237.38373614 -152.44259582 227.78792716 -152.4590925 218.19193155 C-152.4727835 209.88972127 -152.47459058 201.58756796 -152.46677649 193.28535002 C-152.46214358 188.35428757 -152.46135259 183.42331448 -152.47138596 178.49225807 C-152.48016599 173.85523884 -152.47383651 169.2184621 -152.45670319 164.58146858 C-152.45279709 162.89828134 -152.45376877 161.21507303 -152.46049118 159.53189468 C-152.59367583 122.74284336 -141.32978984 87.14183108 -118.0625 58.375 C-117.65306152 57.85873047 -117.24362305 57.34246094 -116.82177734 56.81054688 C-96.51754707 31.28877289 -69.45614273 13.33477029 -38.0625 4.375 C-36.97042236 4.04459717 -35.87834473 3.71419434 -34.75317383 3.3737793 C-23.43385146 0.31051623 -11.66343669 -0.03381399 0 0 Z " fill="#284DFC" transform="translate(613.0625,234.625)"/>
<path d="M0 0 C2 1 2 1 2 1 Z M-2 1 C-1.34 1.33 -0.68 1.66 0 2 C-1.23889596 3.48847937 -2.4915672 4.96550105 -3.75 6.4375 C-4.79414063 7.67306641 -4.79414063 7.67306641 -5.859375 8.93359375 C-8.01343015 11.01296451 -9.08310781 11.63867326 -12 12 C-8.79239749 8.19364503 -5.59253891 4.45436433 -2 1 Z " fill="#4162FB" transform="translate(514,273)"/>
<path d="M0 0 C2.66666667 2.66666667 5.33333333 5.33333333 8 8 C7.67 8.99 7.34 9.98 7 11 C5.82141137 9.9296491 4.6574639 8.84316035 3.5 7.75 C2.8503125 7.14671875 2.200625 6.5434375 1.53125 5.921875 C0 4 0 4 0 0 Z " fill="#3155FB" transform="translate(346,926)"/>
<path d="M0 0 C0.66 0.33 1.32 0.66 2 1 C-0.64 3.97 -3.28 6.94 -6 10 C-6.66 9.34 -7.32 8.68 -8 8 C-5.36 5.36 -2.72 2.72 0 0 Z " fill="#3357FB" transform="translate(834,694)"/>
<path d="M0 0 C0.33 0 0.66 0 1 0 C1 4.29 1 8.58 1 13 C0.01 13.33 -0.98 13.66 -2 14 C-1.34 9.38 -0.68 4.76 0 0 Z " fill="#677FFB" transform="translate(698,554)"/>
</svg>
